<?xml version="1.0" encoding="iso-8859-1"?>
<!-- Generator: Adobe Illustrator 17.0.0, SVG Export Plug-In . SVG Version: 6.00 Build 0)  -->
<!DOCTYPE svg PUBLIC "-//W3C//DTD SVG 1.1//EN" "http://www.w3.org/Graphics/SVG/1.1/DTD/svg11.dtd">
<svg version="1.1" id="Layer" xmlns="http://www.w3.org/2000/svg" xmlns:xlink="http://www.w3.org/1999/xlink" x="0px" y="0px"
	 width="800px" height="518px" viewBox="0 0 800 518" style="enable-background:new 0 0 800 518;" xml:space="preserve">
<path style="fill-rule:evenodd;clip-rule:evenodd;" d="M570.5,376c-2.76,0-5,2.24-5,5s2.24,5,5,5s5-2.24,5-5S573.26,376,570.5,376z
	 M550.5,386c-2.76,0-5,2.24-5,5s2.24,5,5,5s5-2.24,5-5S553.26,386,550.5,386z M570.5,406c2.76,0,5-2.24,5-5s-2.24-5-5-5s-5,2.24-5,5
	S567.74,406,570.5,406z M570.5,387c-2.44,0-4.52-1.46-5.46-3.54l-9.01,5.2c0.3,0.72,0.47,1.51,0.47,2.34s-0.17,1.62-0.47,2.34
	l9.01,5.2c0.94-2.08,3.02-3.54,5.46-3.54c3.31,0,6,2.69,6,6s-2.69,6-6,6s-6-2.69-6-6c0-0.52,0.09-1.01,0.21-1.49l-9.16-5.29
	c-1.07,1.67-2.92,2.78-5.05,2.78c-3.31,0-6-2.69-6-6s2.69-6,6-6c2.13,0,3.98,1.11,5.05,2.78l9.16-5.29
	c-0.12-0.48-0.21-0.97-0.21-1.49c0-3.31,2.69-6,6-6s6,2.69,6,6S573.81,387,570.5,387z"/>
<path style="fill-rule:evenodd;clip-rule:evenodd;" d="M480.5,382c-2.76,0-5,2.24-5,5s2.24,5,5,5s5-2.24,5-5S483.26,382,480.5,382z
	 M480.5,393c-3.31,0-6-2.69-6-6s2.69-6,6-6s6,2.69,6,6S483.81,393,480.5,393z M480.5,379c-4.42,0-8,3.58-8,8s3.58,8,8,8s8-3.58,8-8
	S484.92,379,480.5,379z M480.5,396c-4.97,0-9-4.03-9-9s4.03-9,9-9s9,4.03,9,9S485.47,396,480.5,396z M492.5,375c0-0.55-0.45-1-1-1
	h-2c-0.55,0-1,0.45-1,1v2c0,0.55,0.45,1,1,1h2c0.55,0,1-0.45,1-1V375z M492,379h-3c-0.83,0-1.5-0.67-1.5-1.5v-3
	c0-0.83,0.67-1.5,1.5-1.5h3c0.83,0,1.5,0.67,1.5,1.5v3C493.5,378.33,492.83,379,492,379z M490.5,399h-20c-1.66,0-3-1.34-3-3v-14
	h4.35c-0.19,0.32-0.36,0.66-0.51,1h-2.84v13c0,1.1,0.9,2,2,2h20c1.1,0,2-0.9,2-2v-13h-2.84c-0.15-0.34-0.32-0.68-0.51-1h4.35v14
	C493.5,397.66,492.16,399,490.5,399z M495.5,376c0-2.76-2.24-5-5-5h-20c-2.76,0-5,2.24-5,5v20c0,2.76,2.24,5,5,5h20
	c2.76,0,5-2.24,5-5V376z M490.5,402h-20c-3.31,0-6-2.69-6-6v-20c0-3.31,2.69-6,6-6h20c3.31,0,6,2.69,6,6v20
	C496.5,399.31,493.81,402,490.5,402z"/>
<path style="fill-rule:evenodd;clip-rule:evenodd;" d="M384.5,392h1v8h-1V392z M386.5,391h1v10h-1V391z M388.5,389h1v12h-1V389z
	 M390.5,389h1v12h-1V389z M392.5,384h1v17h-1V384z M394.5,384h1v17h-1V384z M396.5,382h1v19h-1V382z M411.85,390.67
	c-0.47,0-0.92,0.11-1.35,0.33c-0.14,0.07-0.29,0.11-0.45,0.11c-0.17,0-0.34-0.04-0.49-0.13c-0.29-0.16-0.48-0.46-0.5-0.8
	c-0.33-4.59-3.48-8.18-7.17-8.18c-0.81,0-1.65,0.18-2.42,0.52v17.47l12.38,0.01c2.01,0,3.65-2.09,3.65-4.66
	C415.5,392.76,413.86,390.67,411.85,390.67z M411.85,401l-12.87-0.01c-0.28-0.03-0.5-0.32-0.5-0.67v-17.98
	c0-0.33,0.09-0.5,0.44-0.66c0.9-0.43,1.92-0.68,2.97-0.68c4.28,0,7.79,4,8.16,9.11c0.55-0.28,1.16-0.44,1.8-0.44
	c2.56,0,4.64,2.54,4.64,5.67C416.49,398.46,414.41,401,411.85,401z"/>
<path style="fill-rule:evenodd;clip-rule:evenodd;" d="M335.43,384.85c-0.56,0-1.12-0.06-1.72-0.17c-1.86-0.34-3.75-1.06-5.95-2.27
	c-0.49-0.27-1.18-0.61-1.84-0.93c-0.53-0.27-1.05-0.52-1.52-0.77l-0.01,5.65l0.01,3.52c0,0.44-0.06,0.89-0.17,1.37
	c-0.82,3.37-3.35,5.73-6.47,5.73c-1.05,0-2.15-0.27-3.13-0.8c-2.19-1.17-3.13-3.54-2.35-5.9c0.99-3,3.78-5.35,8.54-5.35
	c0.92,0,1.79,0.14,2.58,0.41v-5.07l-2.97-0.98c-1.01-0.2-1.69-0.29-2.57-0.29c-0.87,0-1.77,0.09-2.73,0.29
	c-6.35,1.29-10.3,6.85-9.5,13.22c0.46,3.67,2.25,6.53,5.45,8.52c2.11,1.31,4.46,1.97,6.97,1.97c0.86,0,1.55-0.08,2.46-0.23
	c3.21-0.54,5.83-2.05,7.77-4.46c1.96-2.43,2.81-5.23,2.54-8.31c-0.11-1.18,0.61-1.66,1.23-1.85c0.99-0.31,1.86-0.89,2.57-1.72
	c0.55-0.65,0.79-1.1,0.82-1.58H335.43z M323.41,386.41l-0.25-0.09c-0.71-0.25-1.5-0.38-2.34-0.38c-3.42,0-6.76,2.09-7.61,4.67
	c-0.63,1.9,0.11,3.73,1.87,4.68c0.84,0.45,1.79,0.68,2.68,0.68c2.66,0,4.81-2.04,5.51-4.97c0.1-0.39,0.15-0.76,0.14-1.11V386.41z
	 M335.39,387.07c-0.82,0.96-1.83,1.66-3.04,2.04c-0.46,0.14-0.57,0.37-0.53,0.8c0.3,3.36-0.63,6.38-2.75,9.02
	c-2.15,2.67-5,4.25-8.39,4.83c-0.96,0.16-1.7,0.24-2.63,0.24c-2.64,0-5.16-0.67-7.51-2.13c-3.46-2.14-5.41-5.24-5.91-9.23
	c-0.86-6.9,3.35-12.92,10.3-14.33c1.03-0.21,1.98-0.31,2.93-0.31c0.99,0,1.76,0.11,2.82,0.32l2.72,0.89v-0.2l0.98-0.02l0.02,0.58
	c1.08,0.6,2.82,1.4,3.85,1.97c1.77,0.97,3.62,1.79,5.64,2.16c0.51,0.09,1.02,0.15,1.55,0.15c0.69,0,1.04,0.36,1,1.05
	C336.4,385.76,335.93,386.45,335.39,387.07z"/>
<path style="fill:#212121;" d="M243.89,401.16c0.24,0,1.02-0.09,1.2-0.25c0.23-0.2,0.37-0.49,0.36-0.79l-0.01-2.17
	c0-0.25-0.63-0.48-0.78-0.66c0.88,0.23,1.88,0.71,1.88,1.71c0,1.37,0.01,1.67,0.01,1.99v0.25c-0.31,0.72-0.79,0.82-0.89,0.82
	l-1.15-0.01c-0.43-0.01,0.06-0.02-0.44-0.02c-0.77,0-1.03-0.91-0.06-0.91c0.25,0-0.28,0.02-0.28,0.02L243.89,401.16z M238.03,375.84
	H238c-0.98,0.02-2.03,0.04-2.75,0.58c-0.1-0.12-0.24-0.22-0.4-0.29c-0.12-0.05-0.26-0.08-0.39-0.08c-0.27,0-0.53,0.11-0.73,0.3
	l-6.03,5.93c-0.3,0.29-0.39,0.65-0.23,1.04l0.07,0.13c-1.71,1.68-1.25,3.95-1.24,4.04c0,0.42-0.22,10.56,5.96,11.47
	c0.38,0.07,1.35,0.21,2.49,0.21c4.07,0,5.04-1.57,5.25-2.7c0.01-0.06,0.02-0.12,0.02-0.19v-0.64c0.71,0.61,1.56,1.17,2.47,1.37
	c-2.25,0.31-4.13,1.55-4.17,4.29c0.05,5.26,4.02,5.69,4.88,5.69l0.3-0.01l3.02,0.02l0,0l0.17-0.01c0.29-0.05,7.22-1.46,6.84-13.12
	c0.28-5.49-0.73-11.79-2.71-13.35c-1.98-1.65-5.25-1.59-5.39-1.59h-2.95c-0.57-0.89-1.9-3.03-4.43-3.09H238.03z M234.46,377.08v4.84
	l-1.24,1.01h-4.79L234.46,377.08z M248.26,391.26c0,0-1.32-2.54-2.42-2.54c-1.1,0-1.6,1.99-1.6,1.99L248.26,391.26z M238.03,376.86
	c2.89,0.08,3.83,3.1,3.83,3.1h3.57c0,0,3.01-0.08,4.75,1.36c1.32,1.05,2.64,6.26,2.32,12.54c0.36,10.93-5.98,12.12-5.98,12.12
	l-3.06-0.03c0,0-0.09,0.01-0.26,0.01c-0.95,0-3.8-0.47-3.84-4.65c0.04-3.16,4.01-3.36,4.91-3.36l0.2,0.01l0.01,2.17
	c0,0-0.13-0.04-0.47-0.04c-0.75,0-1.59,0.19-1.51,1.4c-0.04,0.8,0.16,1.54,1.16,1.54c1.79,0,0.62,0.02,1.98,0.03h0.02
	c0.18,0,1.36,0.01,1.91-1.5c0.01-0.05,0.01-0.08,0.01-0.1c0.01-0.11-0.01-0.22-0.01-2.46c0-2.76-4.04-2.94-4.24-2.94h-0.15
	c-2.02,0-4.15-3.04-4.15-3.04s-0.04,2.63-0.04,3.26c-0.35,1.81-2.5,1.87-4.24,1.87c-1.27,0-2.32-0.2-2.33-0.2
	c-5.39-0.78-5.09-10.49-5.09-10.49s-0.48-2.08,1.15-3.48c0.01-0.02,5.82-0.02,5.82-0.02l1.12-1.25v-4.08
	C235.42,377.09,235.97,376.91,238.03,376.86z"/>
<path style="fill-rule:evenodd;clip-rule:evenodd;" d="M564.5,325h8v1h-8V325z M554.33,327.84h-2.82v1.75h3.09
	c1.17,0,1.17-0.57,1.17-0.91C555.77,328.27,555.77,327.84,554.33,327.84z M554.6,330.55h-4.07v-3.67h3.8c1.26,0,2.43,0.31,2.43,1.8
	C556.76,330,555.83,330.55,554.6,330.55z M554.87,333.75h-3.36v2.38h3.29c1.41,0,1.52-0.38,1.52-1.01
	C556.32,334.29,556.09,333.75,554.87,333.75z M554.8,337.09h-4.27v-4.3h4.34c1.51,0,2.44,0.54,2.44,2.15
	C557.31,336.56,556.2,337.09,554.8,337.09z M568.47,331.45c-0.2-0.05-0.47-0.06-0.83-0.06c-0.27,0-0.5,0.02-0.71,0.06H568.47z
	 M567.64,330.43c1.55,0,2.25,0.15,2.54,1.73h-5.17C565.15,331.34,565.8,330.43,567.64,330.43z M564.98,332.16h0.03
	c-0.01,0.09-0.03,0.17-0.03,0.25V332.16z M569.68,335.04h-3.56c0.26,0.87,0.83,1.32,1.72,1.32c0.86,0,1.63-0.77,1.71-1.04
	C569.58,335.22,569.62,335.12,569.68,335.04z M567.84,337.28c-1.78,0-2.77-1.23-2.86-3.2h8.4c0.22-3.49-1.69-6-5.65-6
	c-3.54,0-5.98,2.59-5.98,5.99c0,3.51,2.31,5.97,5.98,5.97c2.63,0,4.98-2.31,5.88-4.99h-2.81
	C570.59,335.76,570.07,337.28,567.84,337.28z M557.99,331.22c1.4-0.66,2.19-1.74,2.19-3.28c0-2.92-2.07-3.98-5.13-3.98h-7.57v15.98
	h7.79c2.91,0,5.67-1.57,5.67-4.75C560.94,333.24,559.95,331.76,557.99,331.22z M573.95,334.85c0.06,0.05,0.11,0.11,0.15,0.17
	c0.19,0.25,0.24,0.57,0.14,0.86c-1.01,3.01-3.38,5.12-6.51,5.12c-2.92,0-5.17-1.37-6.25-3.62c-0.93,2.05-3.19,3.52-6.21,3.52h-7.79
	c-0.54,0-0.98-0.43-0.98-0.96v-15.98c0-0.53,0.44-0.96,0.98-0.96h7.57c5.32,0,6.11,3.1,6.11,4.94c0,1.25-0.42,2.3-1.24,3.11
	c0.43,0.3,0.79,0.66,1.09,1.07c0.78-2.99,3.37-5,6.72-5c1.98,0,3.66,0.65,4.84,1.88c1.3,1.34,1.93,2.92,1.79,5.14
	C574.34,334.43,574.18,334.69,573.95,334.85z"/>
<path d="M474.11,325.48c3.47,0,4.89,3.09,6.52,7.46c0.52,1.38,1.04,2.81,1.72,3.96c1.63,2.8,5.76,3.1,7.46,3.1
	c0.92,0,1.8-0.1,2.59-0.32c2.71-0.74,4.08-2.17,4.08-4.26c0-3.32-3.07-4.27-5.55-5.03c-2.27-0.69-3.66-1.18-3.66-2.46
	c0-1.66,2.03-2.33,2.57-2.41c1.39-0.22,3.36,0.35,4.13,1.89l2.4-0.75c-1.19-2.9-4.41-3.98-6.9-3.59c-2.71,0.41-4.6,2.41-4.6,4.86
	c0,2.96,2.4,3.93,5.31,4.82c2.36,0.72,3.81,1.24,3.81,2.67c0,0.73-0.39,1.71-2.24,2.21c-0.61,0.17-1.26,0.25-1.96,0.25
	c-2.35,0-4.52-0.91-5.28-2.21c-0.55-0.95-1.03-2.23-1.53-3.59c-1.43-3.83-3.38-9.07-8.87-9.07c-3.49,0-7.64,1.61-7.64,9.26
	c0,2.95,2.04,7.62,7.53,7.62c1.83,0,4.15-0.28,5.08-1.57l-1.08-2.15c-0.67,0.65-2.02,1.62-4,1.62c-4.82,0-5.03-5.46-5.03-5.52
	C468.97,327.58,470.55,325.48,474.11,325.48z M489.81,341c-1.87,0-6.41-0.35-8.29-3.59c-0.72-1.23-1.27-2.7-1.79-4.12
	c-1.58-4.24-2.75-6.81-5.62-6.81c-2.96,0-4.17,1.68-4.17,5.79c0,0.17,0.19,4.52,4.06,4.52c2.42,0,3.71-1.75,3.73-1.77
	c0.1-0.14,0.26-0.21,0.43-0.2c0.16,0.01,0.31,0.11,0.39,0.26l1.51,3.04c0.08,0.15,0.08,0.34-0.01,0.48
	c-0.88,1.53-2.9,2.29-6.05,2.29c-5.52,0-8.5-4.44-8.5-8.62c0-3.08,0.84-10.26,8.61-10.26c6.16,0,8.25,5.62,9.77,9.72
	c0.49,1.31,0.95,2.55,1.46,3.42c0.58,0.99,2.49,1.73,4.45,1.73c0.61,0,1.19-0.07,1.71-0.21c1.01-0.27,1.52-0.69,1.52-1.25
	c0-0.59-0.7-0.98-3.12-1.71c-2.39-0.73-6-1.84-6-5.78c0-2.96,2.23-5.36,5.43-5.85c0.37-0.05,0.75-0.08,1.13-0.08
	c2.74,0,5.97,1.5,7,4.84c0.04,0.12,0.03,0.26-0.03,0.38s-0.17,0.2-0.29,0.24l-3.31,1.03c-0.26,0.08-0.52-0.07-0.6-0.33
	c-0.41-1.32-2.14-1.83-3.24-1.66c-0.02,0-1.75,0.42-1.75,1.43c0,0.46,0.72,0.82,2.96,1.5c2.5,0.77,6.25,1.92,6.25,5.99
	c0,1.79-0.83,4.14-4.8,5.22C491.77,340.88,490.82,341,489.81,341z"/>
<path style="fill-rule:evenodd;clip-rule:evenodd;" d="M390,313c-1.93,0-3.5,1.57-3.5,3.5s1.57,3.5,3.5,3.5s3.5-1.57,3.5-3.5
	S391.93,313,390,313z M390,321c-2.49,0-4.5-2.01-4.5-4.5s2.01-4.5,4.5-4.5s4.5,2.01,4.5,4.5S392.49,321,390,321z M393.5,322.93h-7
	v18.06h7V322.93z M386.94,341.99h-1.44v-0.53V322.5v-0.57h1.44h6.14h1.42v0.57v18.96v0.53h-1.42H386.94z M415.5,330.68
	c0-7.48-4.52-8.78-7.06-8.78s-3.94,0.92-5.94,3.15v-2.12h-6v18.06h6v-9.83c0-2.18,0.9-4.3,3.2-4.3c2.3,0,2.8,2.12,2.8,4.25v9.88h7
	V330.68z M415.04,341.99h-6.11h-1.43v-0.53v-10.35c0-3.25-1.29-3.25-1.8-3.25c-2.15,0-2.2,2.75-2.2,3.3v10.3v0.53h-0.69h-6.13h-1.18
	v-0.53V322.5v-0.57h1.18h6.13h0.69v0.5c1-0.97,2.7-1.53,4.71-1.53c1.36,0,3.64,0.32,5.28,1.85c1.79,1.67,3.01,4.34,3.01,7.93v10.78
	v0.53H415.04z"/>
<path style="fill:#212121;" d="M318.28,321.81c-0.19,0-0.38,0.05-0.54,0.16c-3.74,2.5-3.93,8.2-3.87,10.21
	c-1.71,3.12-2.62,3.82-5.74,4.53c-0.45,0.1-0.76,0.5-0.76,0.96c0,0.22,0,0.22,2,4.69c0.17,0.36,0.52,0.58,0.9,0.58
	c0.1,0,0.2-0.02,0.3-0.05c3.86-1.22,6.57-3,8.93-5.9c2.76,0.97,4.06,2.59,5.65,5.47c0.17,0.31,0.5,0.51,0.86,0.51l0.07-0.01
	c0.21-0.01,0.41-0.1,0.57-0.23l0.24-0.19c3.71-2.9,3.71-3,3.71-3.57c0-0.15-0.03-0.29-0.1-0.43c-1.64-3.46-4.03-5.41-6.34-6.77h0.1
	c3.89,0,6.66-2.83,6.78-2.95c0.3-0.32,0.36-0.79,0.15-1.17c-0.17-0.3-1.65-2.91-2.06-3.53c-0.17-0.25-0.43-0.41-0.73-0.44h-0.09
	c-0.26,0-0.51,0.1-0.7,0.28c-0.91,0.92-2.36,1.33-3.39,1.33c-0.29,0-0.46-0.04-0.53-0.06c-0.17-0.04-0.21-0.09-0.21-0.09
	c-0.02-0.02-0.04-0.1,0.02-0.39c0.07-0.32-0.03-0.65-0.27-0.89C323.02,323.65,318.58,321.81,318.28,321.81z M323.09,311.94
	c-2.72,0-4.94,2.24-4.94,4.99s2.22,4.99,4.94,4.99s4.94-2.24,4.94-4.99S325.81,311.94,323.09,311.94z M318.28,322.79
	c0.01,0,4.21,1.72,4.26,1.77c-0.08,0.36-0.26,1.32,0.9,1.63c0.21,0.05,0.48,0.08,0.78,0.08c1.18,0,2.92-0.44,4.09-1.61
	c0.4,0.61,2.02,3.47,2.02,3.47s-2.55,2.65-6.07,2.65c-0.53,0-1.08-0.06-1.65-0.2l-0.07,1.41c2.93,1.55,5.42,3.48,7.08,6.98
	c0,0.23-3.61,3-3.61,3.01c-1.76-3.19-3.3-5.09-6.86-6.13c-1.92,2.52-4.37,4.68-8.88,6.1l-1.92-4.28c3.62-0.83,4.67-1.84,6.51-5.25
	C314.86,332.2,314.39,325.4,318.28,322.79z M323.09,312.92c2.19,0,3.96,1.8,3.96,4.01c0,2.21-1.77,4-3.96,4
	c-2.18,0-3.95-1.79-3.95-4C319.14,314.72,320.91,312.92,323.09,312.92z"/>
<path style="fill-rule:evenodd;clip-rule:evenodd;fill:#212121;" d="M228.03,342h11.48v-5.84l-3.31-2.47l0.57-0.76l2.74,2.04v-4.96
	h1.01v3.23l2.67-1.68l0.5,0.81l-3.17,1.99v2.22l5.16-2.55l0.42,0.85l-5.58,2.75V342h12.45l-12.47-28.51L228.03,342z M240.52,343
	h-1.01H226.5l14-32l14,32H240.52z"/>
<path style="fill:#212121;" d="M560.17,271.71c-1.3,0-2.34,1.3-3.17,2.34c-0.16,0.21-0.3,0.39-0.42,0.52l-0.48,0.52
	c-2.31,2.47-2.99,3.4-3.01,4.13c-0.04,1.14,1.09,2.03,3.9,3.05c1.34,0.49,2.38,0.73,3.18,0.73c1.58,0,2.2-0.97,2.25-1.88
	c0.07-1.23,0.03-4.15,0.01-5.55v-0.66c0-2.6-1.3-3.11-2.08-3.19L560.17,271.71z M565.41,270.14c-0.69,0-1.22,0.19-1.56,0.56
	c-0.85,0.91-0.75,2.22,0.3,3.9c0.6,0.96,2.63,3.99,2.93,4.45c0.17,0.34,0.81,1.4,1.98,1.4c1.64,0,3.64-2.71,3.66-2.74
	c1.48-2.03,1.65-2.92,1.65-3.41c0-1.38-1.16-1.79-2.09-2.11l-0.7-0.28C570.02,271.29,567.11,270.14,565.41,270.14z M550.89,264.55
	l-0.15,0.01c-1.29,0.12-2.01,1.74-2.15,4.8c-0.09,1.87,0.2,3.12,0.9,3.84c0.39,0.41,0.91,0.63,1.48,0.63c0.42,0,0.77-0.12,0.94-0.2
	c0.57-0.18,4.66-1.48,5.54-1.79c0.86-0.32,2.47-0.9,2.47-2.44c0-0.95-1.05-1.91-3.13-2.84
	C555.37,265.95,551.97,264.55,550.89,264.55z M569.37,259.52h-0.02h-0.01c-1.41,0-4.94,4.8-5.71,6.37
	c-0.36,0.73-0.76,1.72-0.18,2.49c0.49,0.66,1.11,0.93,1.96,0.93c0.48,0,1.03-0.11,1.7-0.24l0.09-0.02c5.12-0.97,7.07-1.86,7.18-3.27
	c0.12-1.41-1.75-3.92-2.77-5.03C570.74,259.82,570.03,259.52,569.37,259.52z M559.67,252c-1.4,0-3.12,0.41-3.69,0.59
	c-4.42,1.43-4.49,2.71-4.51,3.14c-0.02,0.3-0.05,0.95,3.61,5.89c3.75,5.06,4.36,5.11,4.8,5.14h0.2c1.35,0,2.29-1.01,2.29-2.45
	l0.02-0.92c0.23-9.27-0.17-10.35-0.76-10.86C561.2,252.17,560.58,252,559.67,252z M560.17,272.67h0.09c1.24,0.13,1.2,1.76,1.2,2.24
	c0,0.47,0.08,4.66,0,6.15c-0.04,0.72-0.56,0.98-1.29,0.98c-0.8,0-1.86-0.31-2.85-0.67c-1.9-0.69-3.28-1.43-3.26-2.13
	c0.02-0.69,2.58-3.29,3.24-4.03C557.94,274.49,559.12,272.67,560.17,272.67z M565.41,271.1c1.85,0,5.73,1.7,6.55,1.99
	c0.99,0.35,1.44,0.55,1.44,1.21c0,0.65-0.74,1.86-1.46,2.86c-0.73,1-2.15,2.33-2.88,2.33c-0.72,0-1.13-0.92-1.13-0.92
	s-2.32-3.45-2.96-4.48c-0.64-1.02-1.01-2.09-0.41-2.74C564.73,271.17,565.02,271.1,565.41,271.1z M550.89,265.51
	c0.99,0,5.5,1.93,5.5,1.93s2.56,1.14,2.56,1.96s-0.93,1.21-1.83,1.54c-0.91,0.32-5.56,1.8-5.56,1.8s-0.26,0.13-0.59,0.13
	c-0.64,0-1.55-0.5-1.42-3.47c0.08-1.59,0.41-3.81,1.28-3.89H550.89z M569.37,260.21c1.22,0,4.15,4.26,4.05,5.49
	c-0.11,1.23-4.98,2.13-6.49,2.41c-0.64,0.13-1.13,0.21-1.52,0.21c-0.52,0-0.87-0.15-1.19-0.58
	C563.34,266.56,568.67,260.24,569.37,260.21z M559.67,252.96c0.58,0,1.07,0.08,1.32,0.3c0.79,0.67,0.41,10.07,0.41,11.05
	c0,0.93-0.54,1.49-1.32,1.49h-0.12c-0.85-0.06-7.57-9.25-7.52-10.03c0.04-0.77,2.04-1.68,3.84-2.27
	C556.85,253.32,558.46,252.96,559.67,252.96z"/>
<path style="fill-rule:evenodd;clip-rule:evenodd;" d="M480.58,255.04c-3.34,0-5.94,2.57-6.07,5.98v9.68c0,1.19-1.37,2.12-2.55,2.12
	c-1.26,0-2.44-0.99-2.44-2.12v-3.75h-3.97v3.81c0,3.42,2.87,6.2,6.39,6.2c3.59,0,6.58-2.8,6.63-6.11v-9.58
	c0-1.28,0.81-2.11,1.93-2.11c1.14,0,1.93,0.86,1.93,2.11l-0.02,1.8l1.91,1.45l2.07-1.4l0.02-2.09
	C486.3,257.51,483.9,255.04,480.58,255.04z M484.28,265.81l-2.93-2.23l0.03-2.32c0-0.51-0.23-1.06-0.88-1.06s-0.87,0.58-0.87,1.07
	l-0.01,9.59c-0.06,3.87-3.53,7.14-7.68,7.14c-4.1,0-7.44-3.25-7.44-7.24v-4.85h6.07v4.79c0,0.54,0.73,1.07,1.39,1.07
	c0.64,0,1.5-0.53,1.5-1.07V261c0.14-4,3.2-7,7.12-7c3.86,0,6.75,2.95,6.88,7.02l-0.03,2.65L484.28,265.81z M495.45,266.97h-3.95
	v3.93c0,1.15-1.24,2.17-2.46,2.17c-1.18,0-2.61-0.97-2.61-2.17V267l-2.19,1.56l-1.83-1.4v3.66c0.03,3.32,3.07,6.14,6.65,6.14
	c3.52,0,6.39-2.78,6.39-6.2V266.97z M489.06,278c-4.14,0-7.67-3.29-7.71-7.18v-5.78l2.91,2.22l3.22-2.29v5.93
	c0,0.5,0.86,1.13,1.56,1.13c0.63,0,1.41-0.56,1.41-1.13v-4.97h6.05v4.83C496.5,274.75,493.16,278,489.06,278z"/>
<path style="fill-rule:evenodd;clip-rule:evenodd;" d="M412.5,275.5c0,0.28,0.22,0.5,0.5,0.5h1c0.28,0,0.5-0.22,0.5-0.5v-1
	c0-0.28-0.22-0.5-0.5-0.5h-1c-0.28,0-0.5,0.22-0.5,0.5V275.5z M413,273h1c0.83,0,1.5,0.67,1.5,1.5v1c0,0.83-0.67,1.5-1.5,1.5h-1
	c-0.83,0-1.5-0.67-1.5-1.5v-1C411.5,273.67,412.17,273,413,273z M399.94,261.99l0.12,0.75l0.64,0.35l2.5,0.11
	c0,0,0.18,0.64-0.29,0.98c-0.46,0.34-4.6,3.84-4.6,3.84l-5.25-6.9c0,0,0.12-0.17,0.88-0.17h2.62V259H385.5v1.94h1.62
	c0.76,0,1.63,0.72,2.39,1.46c0.76,0.75,6.06,6.94,6.06,6.94l-0.04,4.86c0,0-0.37,0.68-1.89,0.68c-1.51,0-2.09,0.09-2.09,0.09v0.97
	h12v-0.61c0,0-0.35-0.4-0.64-0.4h-2.84c-0.35,0-0.47-0.41-0.47-0.92v-4.38l6.75-5.85c0,0,1.05-0.63,1.81-0.63h0.74l0.65-1.16H399.94
	z M409.78,263.63c-0.17,0.32-0.51,0.52-0.88,0.52h-0.74c-0.29,0-0.87,0.24-1.22,0.44l-6.33,5.5v3.84h2.3c0.68,0,1.21,0.52,1.4,0.75
	c0.16,0.18,0.25,0.41,0.25,0.65v0.61c0,0.56-0.45,1-1.01,1h-12c-0.56,0-1.01-0.44-1.01-1v-0.97c0-0.5,0.37-0.92,0.86-0.99
	c0.07-0.01,0.7-0.1,2.24-0.1c0.46,0,0.74-0.07,0.89-0.14l0.03-4.03c-1.61-1.89-5.19-6.04-5.76-6.6c-1.1-1.08-1.56-1.17-1.68-1.17
	h-1.62c-0.56,0-1.01-0.44-1.01-1V259c0-0.55,0.45-1,1.01-1h11.06c0.56,0,1.01,0.45,1.01,1v1.95c0,0.55-0.45,1-1.01,1h-1.61
	l3.52,4.63c0.82-0.7,2.06-1.75,2.92-2.46l-0.74-0.03c-0.15-0.01-0.3-0.05-0.43-0.12l-0.65-0.35c-0.27-0.15-0.46-0.42-0.51-0.73
	l-0.11-0.75c-0.05-0.29,0.04-0.58,0.23-0.8c0.19-0.23,0.47-0.35,0.76-0.35h9.61c0.35,0,0.68,0.18,0.86,0.49
	c0.18,0.3,0.19,0.68,0.02,0.99L409.78,263.63z M412.52,259.96l-0.06,10.97l2.02,0.12l1.01-10.71L412.52,259.96z M416.46,260.59
	l-1.01,10.71c-0.12,0.44-0.52,0.75-0.97,0.75l-0.06-0.01l-2.01-0.11c-0.54-0.03-0.95-0.47-0.95-1l0.06-10.98
	c0-0.27,0.12-0.54,0.32-0.72c0.19-0.18,0.43-0.27,0.68-0.27h0.08l2.96,0.38c0.3,0.02,0.58,0.17,0.75,0.41
	C416.48,259.99,416.54,260.3,416.46,260.59z"/>
<path d="M315.07,269.95c-0.88,0-1.59-0.71-1.59-1.59c0-0.87,0.71-1.58,1.59-1.58s1.6,0.71,1.6,1.58
	C316.67,269.24,315.95,269.95,315.07,269.95z M324.87,269.95c-0.88,0-1.59-0.71-1.59-1.59c0-0.87,0.71-1.58,1.59-1.58
	c0.89,0,1.6,0.71,1.6,1.58C326.47,269.24,325.76,269.95,324.87,269.95z M320.22,275.34c-2.39,0-4.55-0.61-5.64-1.59
	c-0.14-0.15-0.19-0.35-0.12-0.53c0.06-0.13,0.19-0.27,0.4-0.27c0.14,0,0.3,0.07,0.45,0.18c0.83,0.83,2.51,1.32,4.56,1.32
	c2.12,0,4.03-0.54,4.88-1.37c0.12-0.09,0.25-0.15,0.36-0.15c0.21,0,0.31,0.19,0.33,0.24c0.07,0.18,0.07,0.43-0.14,0.64
	C324.53,274.75,322.55,275.34,320.22,275.34z M330.06,254.86c-1.26,0-2.28,0.99-2.28,2.21c0,1.21,1.02,2.2,2.28,2.2
	s2.28-0.99,2.28-2.2C332.34,255.85,331.32,254.86,330.06,254.86z M331.58,262.96c-0.65,0-1.14,0.17-1.56,0.52l-0.26,0.22l0.27,0.22
	c1.25,1.01,2.2,2.19,2.81,3.5l0.14,0.29l0.27-0.17c0.49-0.3,1.06-0.92,1.06-2.17c-0.01-1.47-1.46-2.34-2.5-2.4L331.58,262.96z
	 M308.12,262.98c-0.95,0-2.44,1.02-2.44,2.38c-0.02,1.4,0.6,1.92,1.07,2.19l0.31,0.18l0.11-0.34c0.38-1.21,2.08-3.07,2.72-3.43
	l0.3-0.17l-0.22-0.26c-0.33-0.38-1.11-0.55-1.74-0.55H308.12z M320.04,261.81c-6.73,0-12.21,3.63-12.21,8.1
	c0,4.46,5.48,8.09,12.21,8.09c6.74,0,12.22-3.63,12.22-8.09C332.26,265.44,326.78,261.81,320.04,261.81z M319.99,279
	c-7.37,0-13.37-4.07-13.37-9.07c0-0.32,0.04-0.67,0.1-1.06l0.04-0.2l-0.19-0.1c-0.29-0.14-1.74-0.93-2.02-2.59
	c-0.08-1.12,0.21-1.95,1.01-2.85c0.73-0.66,1.62-1.02,2.77-1.1c1.54,0.01,2.53,0.97,2.57,1.01l0.16,0.16l0.19-0.12
	c2.3-1.35,5.12-2.11,8.17-2.2l0.28-0.01l-0.01-0.28c-0.01-0.73,0.07-3.25,1.46-4.65c0.63-0.64,1.46-0.96,2.47-0.96
	c0.21,0,0.42,0.02,0.65,0.04c1.4,0.19,2.34,0.65,2.6,0.79l0.25,0.14l0.14-0.25c0.56-1.05,1.64-1.7,2.83-1.7
	c1.77,0,3.21,1.41,3.21,3.15c0,1.73-1.44,3.15-3.21,3.15s-3.21-1.42-3.21-3.15l0.02-0.16l0.01-0.17l-0.16-0.09
	c-0.5-0.29-1.5-0.77-2.45-0.78c-0.15-0.03-0.33-0.04-0.51-0.04c-0.79,0-1.44,0.26-1.95,0.78c-1.15,1.18-1.17,3.33-1.14,3.96v0.26
	l0.27,0.02c2.91,0.14,5.57,0.88,7.71,2.13l0.17,0.1l0.15-0.12c0.97-0.74,1.31-0.96,2.64-1.02c1.28,0,2.31,0.69,2.71,1.11
	c0.62,0.64,1.1,1.27,1.03,2.88c-0.14,1.42-1.67,2.38-1.97,2.56l0.15,0.13l-0.32,0.12c0.08,0.42,0.11,0.78,0.11,1.11
	C333.35,274.93,327.36,279,319.99,279z"/>
<path d="M250.69,252.99c-4.22,0-7.59,3-9.01,8.02c-0.11,0.38,0.01,0.79,0.32,1.04c0.18,0.16,0.42,0.24,0.65,0.24
	c0.15,0,0.3-0.03,0.43-0.09c0.52-0.24,1.15-0.39,1.65-0.39c0.9,0,1.01,0.42,1.05,0.84c0.15,1.77-2.61,6.27-3.75,6.97
	c-0.61-0.77-1.55-4.07-2.16-8.72c-0.3-2.27-0.92-6.99-5.02-6.99c-2.56,0-5.32,2.46-7.76,4.64c-0.77,0.68-1.49,1.33-2.13,1.83
	c-0.44,0.33-0.52,0.95-0.19,1.39l1.36,1.84c0.17,0.22,0.41,0.37,0.68,0.4l0.14,0.01c0.22,0,0.44-0.07,0.62-0.21
	c0.66-0.51,1.47-1.01,1.84-1.15c0.96,0.77,2.33,6,2.78,7.76c0.17,0.65,0.32,1.23,0.45,1.68l0.27,0.99c0.77,2.95,2.07,7.88,6.21,7.88
	c7,0,17.29-15.84,17.29-20.82C256.41,254.23,253.3,252.99,250.69,252.99z M250.69,254c3.79,0,4.7,2.95,4.7,6.15
	c0,4.88-10.14,19.81-16.27,19.81c-3.79,0-4.73-5.44-5.5-8.13c-0.77-2.69-2.28-9.75-4.05-10.2l-0.08-0.01
	c-0.74,0-2.54,1.39-2.54,1.39l-1.37-1.84c2.62-2.04,6.36-6.25,9.27-6.25c2.9,0,3.61,3.08,4.01,6.11s1.54,9.66,3.08,9.66
	c1.54,0,5.05-5.86,4.85-8.13c-0.12-1.33-1.04-1.76-2.06-1.76c-0.72,0-1.5,0.22-2.08,0.49C243.94,256.75,246.9,254,250.69,254z"/>
<path d="M560.4,182h-4.03c-0.55,0-1,0.52-1,1.08c0,5.11-4.66,5.93-4.84,5.97c-0.46,0.11-1.03,0.55-1.03,1.03v4.09
	c0,0.56,0.93,0.8,1.49,0.8h2.51v9.7c0,4.04,3.53,7.33,7.9,7.33c4.08,0,6.49-1.66,6.58-1.73c0.26-0.19,0.52-0.5,0.52-0.83v-4.55
	c0-0.44-0.39-0.83-0.8-0.97c-0.11-0.03-0.27-0.05-0.38-0.05c-0.31,0-0.63,0.14-0.83,0.4c-0.03,0.04-0.88,1.14-2.66,1.14
	c-1.73,0-2.33-1.36-2.33-2.27v-8.17h4.9c0.55,0,1.1-0.15,1.1-0.71v-4.31c0-0.57-0.55-0.96-1.1-0.96h-4.9v-5.85
	C561.5,182.58,560.96,182,560.4,182z M560.5,183.02v6.99h6v4.01h-6v9.12c0,1.43,1.09,3.28,3.43,3.28c2.35,0,3.57-1.53,3.57-1.53
	v4.55c0,0-2.17,1.54-5.98,1.54s-7.02-2.86-7.02-6.31v-10.65h-4v-3.94c0,0,5.87-0.96,5.87-7.06H560.5z"/>
<path style="fill-rule:evenodd;clip-rule:evenodd;" d="M472.5,191c-3.31,0-6,2.69-6,6s2.69,6,6,6s6-2.69,6-6S475.81,191,472.5,191z
	 M472.5,204c-3.87,0-7-3.13-7-7s3.13-7,7-7s7,3.13,7,7S476.37,204,472.5,204z M488.5,191c-3.31,0-6,2.69-6,6s2.69,6,6,6s6-2.69,6-6
	S491.81,191,488.5,191z M488.5,204c-3.87,0-7-3.13-7-7s3.13-7,7-7s7,3.13,7,7S492.37,204,488.5,204z"/>
<path style="fill-rule:evenodd;clip-rule:evenodd;" d="M409.5,185.02V204h4.26c1.11-2.09,1.74-4.47,1.74-7
	C415.5,192.1,413.14,187.76,409.5,185.02z M400.5,182c-1.49,0-2.93,0.23-4.3,0.63l12.3,10.99v-9.29
	C406.18,182.86,403.44,182,400.5,182z M385.5,197c0,0.7,0.05,1.39,0.15,2.06l14.09-11.93l-4.62-4.12
	C389.5,185.17,385.5,190.61,385.5,197z M392.5,209.67v-15.1l-6.63,5.62C386.74,204.17,389.16,207.56,392.5,209.67z M393.5,204h15
	v-9.04l-8.01-7.16l-6.99,5.92V204z M393.5,210.26c2.09,1.11,4.47,1.74,7,1.74c5.34,0,10.02-2.8,12.67-7h-3.67h-1h-15V210.26z
	 M400.5,213c-8.84,0-16-7.16-16-16s7.16-16,16-16s16,7.16,16,16S409.34,213,400.5,213z"/>
<path d="M320.32,203.34c1.08,0,1.96-0.23,2.64-0.7c0.67-0.46,1.01-1.04,1.01-1.73c0-0.55-0.18-1-0.55-1.34
	c-0.36-0.34-0.83-0.61-1.41-0.79c-0.58-0.18-1.35-0.37-2.32-0.57c-1.3-0.28-2.38-0.61-3.25-0.98c-0.88-0.37-1.57-0.88-2.08-1.53
	c-0.51-0.64-0.77-1.44-0.77-2.4c0-0.91,0.27-1.72,0.81-2.43c0.54-0.71,1.32-1.25,2.35-1.63c1.03-0.39,2.23-0.57,3.62-0.57
	c1.1,0,2.06,0.12,2.87,0.37c0.81,0.26,1.48,0.59,2.01,1.01s0.92,0.86,1.17,1.32c0.24,0.46,0.37,0.91,0.37,1.34
	c0,0.4-0.16,0.76-0.46,1.08c-0.31,0.32-0.69,0.48-1.15,0.48c-0.42,0-0.74-0.09-0.96-0.29c-0.21-0.19-0.45-0.5-0.7-0.94
	c-0.33-0.62-0.72-1.11-1.19-1.46c-0.45-0.35-1.19-0.53-2.21-0.53c-0.94,0-1.7,0.19-2.28,0.57c-0.58,0.38-0.87,0.84-0.87,1.38
	c0,0.33,0.1,0.61,0.3,0.85c0.19,0.25,0.46,0.45,0.81,0.63c0.34,0.17,0.69,0.3,1.04,0.4c0.36,0.1,0.94,0.24,1.75,0.43
	c1.02,0.22,1.94,0.46,2.76,0.73c0.83,0.26,1.53,0.58,2.11,0.96c0.57,0.37,1.03,0.85,1.35,1.43c0.32,0.57,0.49,1.28,0.49,2.12
	c0,1-0.29,1.9-0.85,2.7s-1.38,1.42-2.46,1.88c-1.09,0.45-2.37,0.67-3.85,0.67c-1.78,0-3.25-0.3-4.41-0.92
	c-0.82-0.45-1.48-1.04-2-1.78c-0.51-0.74-0.76-1.47-0.76-2.17c0-0.41,0.15-0.75,0.46-1.04c0.3-0.3,0.7-0.44,1.17-0.44
	c0.39,0,0.71,0.11,0.98,0.34c0.27,0.23,0.49,0.56,0.68,1.01c0.23,0.52,0.48,0.96,0.75,1.32c0.26,0.35,0.64,0.65,1.12,0.88
	C318.89,203.22,319.53,203.34,320.32,203.34z M312.63,181c-4.49,0-8.13,3.64-8.13,8.14c0,1.83,0.61,3.52,1.64,4.88
	c-0.21,0.97-0.33,1.98-0.33,3.02c0,7.88,6.39,14.26,14.27,14.26c1.01,0,2-0.11,2.95-0.31c1.43,1.25,3.29,2.01,5.34,2.01
	c4.49,0,8.13-3.64,8.13-8.13c0-2.23-0.89-4.24-2.34-5.7c0.11-0.7,0.18-1.41,0.18-2.13c0-7.88-6.38-14.27-14.26-14.27
	c-0.74,0-1.46,0.07-2.16,0.18C316.49,181.74,314.65,181,312.63,181z M320.32,202.34c-0.63,0-1.14-0.09-1.48-0.25
	c-0.33-0.16-0.59-0.35-0.76-0.58c-0.21-0.28-0.42-0.66-0.62-1.1c-0.24-0.59-0.57-1.05-0.95-1.38c-0.44-0.38-1.01-0.58-1.63-0.58
	c-0.73,0-1.37,0.25-1.86,0.71c-0.51,0.48-0.77,1.09-0.77,1.77c0,0.91,0.31,1.83,0.94,2.74c0.6,0.87,1.39,1.57,2.35,2.09
	c1.3,0.69,2.94,1.04,4.88,1.04c1.61,0,3.03-0.25,4.23-0.75c1.25-0.52,2.23-1.27,2.9-2.23c0.68-0.97,1.03-2.07,1.03-3.27
	c0-1.01-0.21-1.89-0.62-2.61c-0.4-0.72-0.96-1.32-1.68-1.78c-0.65-0.42-1.44-0.79-2.34-1.08c-0.86-0.27-1.82-0.52-2.84-0.74
	c-0.8-0.19-1.38-0.33-1.7-0.42c-0.3-0.08-0.59-0.2-0.87-0.34c-0.22-0.11-0.38-0.23-0.49-0.36c-0.03-0.04-0.07-0.1-0.07-0.22
	c0-0.08,0-0.27,0.42-0.54c0.41-0.27,0.99-0.41,1.73-0.41c1.03,0,1.45,0.2,1.61,0.32c0.34,0.26,0.64,0.64,0.92,1.17
	c0.31,0.54,0.61,0.93,0.91,1.19c0.4,0.36,0.95,0.54,1.62,0.54c0.73,0,1.37-0.27,1.87-0.78c0.48-0.51,0.74-1.12,0.74-1.78
	c0-0.6-0.17-1.21-0.49-1.81c-0.31-0.58-0.79-1.13-1.43-1.64c-0.63-0.49-1.41-0.88-2.33-1.17c-0.91-0.28-1.97-0.42-3.17-0.42
	c-1.5,0-2.84,0.21-3.97,0.63c-1.2,0.44-2.14,1.1-2.79,1.96c-0.68,0.88-1.02,1.91-1.02,3.04c0,1.18,0.33,2.2,0.99,3.03
	c0.61,0.77,1.44,1.38,2.47,1.82c0.93,0.4,2.09,0.75,3.43,1.04c0.94,0.19,1.68,0.38,2.23,0.55c0.43,0.13,0.78,0.32,1.03,0.56
	c0.11,0.1,0.23,0.26,0.23,0.61c0,0.24-0.06,0.56-0.58,0.91C321.89,202.17,321.19,202.34,320.32,202.34z M312.63,182
	c1.7,0,3.34,0.61,4.64,1.71l0.34,0.3l0.46-0.07c0.74-0.11,1.39-0.17,2.01-0.17c7.31,0,13.26,5.95,13.26,13.27
	c0,0.6-0.05,1.22-0.16,1.98l-0.08,0.49l0.35,0.36c1.32,1.34,2.05,3.11,2.05,5c0,3.93-3.2,7.13-7.13,7.13
	c-1.72,0-3.38-0.62-4.68-1.76l-0.38-0.33l-0.49,0.1c-0.91,0.2-1.83,0.29-2.74,0.29c-7.32,0-13.27-5.95-13.27-13.26
	c0-0.93,0.1-1.87,0.31-2.81l0.09-0.45l-0.27-0.37c-0.94-1.25-1.44-2.72-1.44-4.27C305.5,185.2,308.7,182,312.63,182z"/>
<path d="M238.74,189.62c-0.41,0-0.84,0.15-1.23,0.45c-0.93,0.69-1.39,1.71-1.5,3.3c-0.05,0.74,0.05,1.47,0.31,2.2
	c0.17,0.5,0.19,1,0.05,1.61l-0.91,3.95c-0.34,1.51-0.68,3.01-1.03,4.51c-0.48,2.06-0.37,4.11-0.17,5.87
	c1.55-2.15,2.49-4.31,2.92-6.5c0.14-0.68,0.31-1.35,0.49-2.02l0.17-0.66c0.12-0.6,0.41-0.71,0.65-0.71c0.26,0,0.46,0.17,0.58,0.31
	c1.38,1.53,3.1,1.92,5.56,1.25c1.61-0.44,2.77-1.28,3.8-2.74c2.07-2.91,2.69-6.16,2.1-9.68c-0.59-3.5-2.41-5.97-5.86-7.14
	c-4.36-1.48-8.4-0.67-11.89,2.38c-1.7,1.48-2.76,3.49-3.15,5.96l-0.07,0.34l-0.03,0.16l0.01,1.74l0.08,0.44
	c0.14,0.7,0.26,1.37,0.53,1.99c0.51,1.2,1.22,2.03,2.19,2.55c0.26,0.13,0.37,0.15,0.41,0.15c0,0,0.07-0.07,0.16-0.4
	c0.08-0.34,0.17-0.68,0.25-1.01c0.05-0.24,0.02-0.41-0.12-0.57c-1.09-1.32-1.44-3-1.09-5.14c0.72-4.33,4.09-7.25,8.39-7.29
	c2.4,0,3.93,0.61,5.31,1.9c1.19,1.11,1.89,2.57,2.01,4.23c0.22,3.1-0.32,5.7-1.66,7.94c-1.02,1.7-2.1,2.56-3.68,2.62h-0.15
	c-1.08,0-1.99-0.42-2.57-1.19c-0.58-0.77-0.76-1.79-0.5-2.87c0.2-0.82,0.43-1.62,0.66-2.42c0.18-0.61,0.35-1.22,0.51-1.83
	c0.18-0.69,0.33-1.36,0.21-2.02C240.29,190.27,239.61,189.62,238.74,189.62z M234.46,213h-0.72l-0.15-0.2
	c-0.18-0.23-0.28-0.5-0.32-0.84c-0.24-1.93-0.4-4.22,0.15-6.57c0.35-1.5,0.69-3,1.03-4.5l0.91-3.96c0.09-0.4,0.08-0.69-0.02-1
	c-0.31-0.86-0.43-1.75-0.37-2.63c0.09-1.21,0.38-2.94,1.92-4.1c0.58-0.43,1.22-0.66,1.85-0.66c1.37,0,2.48,1.02,2.76,2.54
	c0.16,0.88-0.02,1.72-0.22,2.5c-0.17,0.62-0.34,1.24-0.52,1.85c-0.23,0.79-0.45,1.58-0.65,2.38c-0.18,0.75-0.07,1.45,0.31,1.95
	s1,0.77,1.75,0.77h0.11c1.23-0.04,2.19-0.71,3.02-2.11c1.22-2.03,1.53-4.42,1.32-7.29c-0.1-1.4-0.47-2.58-1.48-3.51
	c-1.18-1.11-2.67-1.62-4.7-1.62c-3.93,0.03-6.83,2.54-7.46,6.39c-0.31,1.83-0.03,3.19,0.85,4.26c0.36,0.43,0.47,0.95,0.34,1.52
	c-0.08,0.35-0.17,0.7-0.26,1.04c-0.08,0.3-0.31,1.19-1.16,1.19c-0.26,0-0.54-0.08-0.88-0.27c-1.19-0.63-2.07-1.63-2.68-3.07
	c-0.31-0.73-0.45-1.49-0.59-2.22l-0.1-0.58l0.04-2.17l0.06-0.31c0.43-2.73,1.61-4.95,3.51-6.6c3.76-3.29,8.18-4.18,12.88-2.59
	c3.84,1.31,5.91,4.07,6.57,7.99c0.63,3.76-0.08,7.39-2.29,10.5c-1.18,1.66-2.52,2.63-4.37,3.14c-2.63,0.72-4.59,0.34-6.18-1.14
	l-0.05,0.19c-0.17,0.65-0.34,1.3-0.47,1.95c-0.5,2.54-1.68,5.1-3.58,7.58L234.46,213z"/>
<path style="fill-rule:evenodd;clip-rule:evenodd;" d="M571.41,116.73l-0.2,0.25c-2.08,2.55-4.65,4.46-7.86,5.83l-0.86,0.36
	l0.41,0.87c0.38,0.81,0.75,1.65,1.12,2.52l0.27,0.64l0.66-0.11c1.26-0.21,2.6-0.32,3.98-0.32c1.85,0,3.83,0.19,5.89,0.57l0.66,0.12
	c0-0.16,0.02-0.31,0.02-0.46C575.5,123.02,573.94,119.41,571.41,116.73z M556.26,112.62l0.1,0.14c1.92,2.74,3.68,5.64,5.24,8.64
	l0.36,0.7l0.72-0.29c3.21-1.34,5.86-3.3,7.86-5.83l0.05-0.06c-2.67-2.43-6.2-3.92-10.09-3.92
	C559.03,112,557.61,112.22,556.26,112.62z M545.76,124.25l0.62,0.06c5.61-0.01,9.88-0.49,13.46-1.52l1.06-0.3l-0.53-1
	c-1.92-3.64-3.87-6.58-5.23-8.49C550.34,114.85,546.72,119.08,545.76,124.25z M550.01,137.71l0.28-0.42
	c3.27-4.99,7.17-8.12,11.93-9.57l0.95-0.29l-0.4-0.95c-0.34-0.77-0.68-1.54-1.02-2.27l-0.33-0.7l-0.7,0.17
	c-3.89,1.19-8.41,1.65-14.64,1.65h-0.48c-0.06,0.55-0.1,1.1-0.1,1.67C545.5,131.2,547.23,134.99,550.01,137.71z M566.84,140.58
	c-0.52-3.68-1.51-7.48-2.94-11.29l-0.29-0.75l-0.75,0.21c-6.34,1.82-9.83,6.34-11.9,9.59l-0.1,0.15c2.61,2.19,5.97,3.51,9.64,3.51
	C562.77,142,564.92,141.48,566.84,140.58z M575.41,128.63l-0.49-0.09c-2.09-0.4-4.09-0.6-5.95-0.6c-1.08,0-2.14,0.07-3.15,0.2
	l-1.09,0.15l0.39,1.07c1.25,3.4,2.15,6.8,2.69,10.09l0.1,0.58C571.99,137.71,574.88,133.53,575.41,128.63z M560.5,143
	c-8.84,0-16-7.16-16-16s7.16-16,16-16s16,7.16,16,16S569.34,143,560.5,143z"/>
<path style="fill-rule:evenodd;clip-rule:evenodd;" d="M487.97,126.58l-12.79-8.48c-0.09-0.06-0.2-0.1-0.3-0.1
	c-0.25,0-0.39,0.18-0.39,0.49V120l0.01,1v13.5v1h-0.01v0.03c0,0.3,0.13,0.47,0.37,0.47c0.11,0,0.23-0.04,0.34-0.11l12.73-8.66
	c0.24-0.15,0.32-0.29,0.32-0.35C488.25,126.84,488.18,126.71,487.97,126.58z M488.48,128.06l-12.75,8.68
	c-0.28,0.18-0.58,0.26-0.87,0.26c-0.72,0-1.36-0.56-1.36-1.47v-1.03h0.01V121h-0.01v-2.51c0-0.92,0.64-1.49,1.38-1.49
	c0.28,0,0.57,0.08,0.85,0.26l12.77,8.47C489.5,126.37,489.48,127.42,488.48,128.06z M495.5,117c0-2.76-2.24-5-5-5h-20
	c-2.76,0-5,2.24-5,5v20c0,2.76,2.24,5,5,5h20c2.76,0,5-2.24,5-5V117z M490.5,143h-20c-3.31,0-6-2.69-6-6v-20c0-3.31,2.69-6,6-6h20
	c3.31,0,6,2.69,6,6v20C496.5,140.31,493.81,143,490.5,143z"/>
<path d="M412.5,113.03h-1h-2h-1v1V117h-3h-1v1v2.03v1h1h3V124v1h1h2h1v-1v-2.97h3h1v-1V118v-1h-1h-3v-2.97V113.03z M394.25,138.03
	c-2.65,0-4.58-1.37-4.58-3.26c0-1.78,2.41-3.39,5.06-3.39h0.07c0.58,0,1.14,0.09,1.67,0.24l0.53,0.37c1.42,0.96,2.11,1.47,2.32,2.28
	c0.04,0.2,0.07,0.41,0.07,0.62C399.39,136.35,398.81,138.03,394.25,138.03z M395.19,123.84h-0.06c-1.67-0.05-3.35-2.08-3.65-4.42
	c-0.18-1.3,0.09-2.46,0.72-3.18c0.39-0.44,0.88-0.67,1.45-0.67h0.06c1.54,0.05,3.42,1.8,3.75,4.34c0.17,1.27-0.12,2.48-0.77,3.22
	C396.4,123.45,395.91,123.84,395.19,123.84z M405.56,112h-2.32h-8.44c-4.37,0-8.35,3.52-8.35,7.38c0,3.92,2.9,6.93,6.84,7.2
	c-0.04,0.21-0.06,0.42-0.06,0.64c0,0.47,0.09,0.93,0.27,1.38c-4.92,0.17-9,3.34-9,7.07c0,3.55,4.29,6.33,9.77,6.33
	c4.53,0,9.23-2.79,9.23-7.45c0-2.89-0.9-4.6-3.31-6.3c-0.85-0.6-1.7-1.52-1.8-1.85c0-0.44,0.03-0.65,1.23-1.59
	c1.9-1.48,2.87-3.19,2.87-5.06c0-1.42-0.41-2.7-1.18-3.75h0.04h0.43l0.29-0.31l1.89-2L405.56,112z M411.5,114.03V118h4v2.03h-4V124
	h-2v-3.97h-4V118h4v-3.97H411.5z M394.25,139.03c4.55,0,6.14-1.67,6.14-4.14c0-0.29-0.04-0.58-0.1-0.87
	c-0.36-1.39-1.62-2.08-3.38-3.3c-0.64-0.21-1.34-0.33-2.1-0.34h-0.08c-3.21,0-6.06,1.99-6.06,4.39
	C388.67,137.23,391.01,139.03,394.25,139.03z M395.19,124.84c2.13,0,3.63-2.24,3.26-5.06c-0.37-2.85-2.53-5.14-4.71-5.21h-0.09
	c-2.13,0-3.54,2.16-3.17,4.98c0.38,2.85,2.45,5.22,4.62,5.29H395.19z M403.24,113l-1.89,2h-2.68c1.78,1,2.82,2.62,2.82,4.75
	c0,1.78-1.09,3.18-2.48,4.28c-1.36,1.06-1.62,1.5-1.62,2.41c0,0.77,1.46,2.08,2.22,2.62c2.23,1.58,2.89,3.04,2.89,5.49
	c0,3.05-2.89,6.45-8.23,6.45c-4.69,0-8.77-2.28-8.77-5.33c0-3.1,3.73-6.08,8.42-6.08c0.51,0,0.98-0.02,1.46-0.02
	c-0.64-0.63-1.15-1.4-1.15-2.35c0-0.55,0.18-1.12,0.43-1.6l-0.14,0.01c-0.21,0-0.42-0.03-0.64-0.03c-3.85,0-6.43-2.83-6.43-6.22
	c0-3.32,3.56-6.38,7.35-6.38H403.24z"/>
<path d="M326.17,115c-3.58,0-6.5,3.05-6.5,6.81v0.21c-3.67-0.52-7.06-2.51-9.43-5.57c-0.18-0.25-0.47-0.39-0.78-0.39l-0.08,0.01
	c-0.33,0.02-0.63,0.21-0.79,0.51c-0.57,1.03-0.87,2.21-0.87,3.4c0,1.11,0.26,2.18,0.73,3.13c-0.09,0.02-0.18,0.06-0.27,0.11
	c-0.3,0.17-0.5,0.49-0.5,0.85v0.09c0,2,0.84,3.84,2.2,5.11l-0.02,0.01c-0.23,0.26-0.31,0.63-0.21,0.97
	c0.58,1.91,1.92,3.42,3.61,4.18c-1.34,0.69-2.82,1.04-4.35,1.04c-0.4,0-0.8-0.02-1.2-0.07l-0.12-0.01c-0.41,0-0.78,0.26-0.93,0.65
	c-0.16,0.44,0,0.92,0.38,1.18c2.69,1.82,5.8,2.78,8.99,2.78c6.28,0,10.2-3.12,12.39-5.74c2.71-3.24,4.27-7.54,4.27-11.78v-0.28
	c1-0.83,1.86-1.82,2.57-2.94c0.24-0.37,0.2-0.86-0.09-1.2c-0.19-0.22-0.47-0.34-0.75-0.34c-0.06,0-0.12,0.01-0.19,0.02
	c0.16-0.33,0.3-0.67,0.4-1.02c0.12-0.4-0.01-0.83-0.34-1.09c-0.18-0.14-0.39-0.21-0.61-0.21c-0.18,0-0.36,0.05-0.52,0.16
	c-0.83,0.52-1.72,0.9-2.66,1.15C329.32,115.62,327.77,115,326.17,115z M326.17,116c1.58,0,3.01,0.71,4.02,1.83
	c1.25-0.26,2.43-0.74,3.49-1.41c-0.41,1.36-1.28,2.5-2.42,3.22c1.12-0.14,2.18-0.46,3.16-0.92c-0.73,1.17-1.67,2.19-2.74,3.01
	c0.01,0.25,0.01,0.5,0.01,0.75c0,7.67-5.53,16.52-15.66,16.52c-3.11,0-6-0.96-8.44-2.61c0.43,0.05,0.87,0.08,1.32,0.08
	c2.57,0,4.95-0.93,6.83-2.48c-2.41-0.05-4.44-1.73-5.14-4.04c0.34,0.07,0.68,0.11,1.04,0.11c0.5,0,0.98-0.07,1.45-0.21
	c-2.52-0.53-4.42-2.88-4.42-5.69v-0.07c0.74,0.43,1.59,0.69,2.49,0.72c-1.47-1.04-2.45-2.81-2.45-4.83c0-1.06,0.28-2.06,0.75-2.92
	c2.72,3.52,6.77,5.83,11.35,6.07c-0.1-0.43-0.15-0.87-0.15-1.32C320.66,118.6,323.13,116,326.17,116z"/>
<path style="fill-rule:evenodd;clip-rule:evenodd;" d="M255.5,117c0-2.76-2.24-5-5-5h-20c-2.76,0-5,2.24-5,5v20c0,2.76,2.24,5,5,5
	h9.98v-9.99L237.5,132v-5l2.99,0.01l0.01-4.01c0-1.56,1.12-4,4-4h0.38c4.65,0,4.57,0.01,4.57,0.01v5h-3.04c0,0-0.96,0.01-0.96,1v2
	l3.05-0.01v5h-3v10h5c2.76,0,5-2.24,5-5V117z M247.5,131v-3l-2.05,0.01h-0.97v-1v-2c0-1.28,0.99-1.99,1.91-2h2.1V120h-3.99
	c-1.59,0-3,1.38-3,3v5h-3v3h3l-0.06,11h3.06v-11H247.5z M250.5,143h-20c-3.31,0-6-2.69-6-6v-20c0-3.31,2.69-6,6-6h20
	c3.31,0,6,2.69,6,6v20C256.5,140.31,253.81,143,250.5,143z"/>
</svg>
